<svg width="464" height="304" viewBox="0 0 464 304" fill="none" xmlns="http://www.w3.org/2000/svg">
<circle cx="8" cy="8" r="8" fill="white" fill-opacity="0.08"/>
<circle cx="40" cy="8" r="8" fill="white" fill-opacity="0.08"/>
<circle cx="72" cy="8" r="8" fill="#43A1F7"/>
<circle cx="72" cy="8" r="8" fill="url(#paint0_linear_1_642)"/>
<circle cx="104" cy="8" r="8" fill="white" fill-opacity="0.08"/>
<circle cx="232" cy="8" r="8" fill="white" fill-opacity="0.08"/>
<circle cx="264" cy="8" r="8" fill="white" fill-opacity="0.08"/>
<circle cx="296" cy="8" r="8" fill="white" fill-opacity="0.08"/>
<circle cx="328" cy="8" r="8" fill="white" fill-opacity="0.08"/>
<circle cx="360" cy="8" r="8" fill="white" fill-opacity="0.08"/>
<circle cx="8" cy="40" r="8" fill="white" fill-opacity="0.08"/>
<circle cx="40" cy="40" r="8" fill="white" fill-opacity="0.08"/>
<circle cx="72" cy="40" r="8" fill="white" fill-opacity="0.08"/>
<circle cx="104" cy="40" r="8" fill="white" fill-opacity="0.08"/>
<circle cx="136" cy="40" r="8" fill="white" fill-opacity="0.08"/>
<circle cx="200" cy="40" r="8" fill="white" fill-opacity="0.08"/>
<circle cx="232" cy="40" r="8" fill="white" fill-opacity="0.08"/>
<circle cx="264" cy="40" r="8" fill="#43A1F7"/>
<circle cx="264" cy="40" r="8" fill="url(#paint1_linear_1_642)"/>
<circle cx="296" cy="40" r="8" fill="white" fill-opacity="0.08"/>
<circle cx="328" cy="40" r="8" fill="white" fill-opacity="0.08"/>
<circle cx="360" cy="40" r="8" fill="white" fill-opacity="0.08"/>
<circle cx="392" cy="40" r="8" fill="white" fill-opacity="0.08"/>
<circle cx="456" cy="40" r="8" fill="white" fill-opacity="0.08"/>
<circle cx="72" cy="72" r="8" fill="white" fill-opacity="0.08"/>
<circle cx="104" cy="72" r="8" fill="white" fill-opacity="0.08"/>
<circle cx="136" cy="72" r="8" fill="white" fill-opacity="0.08"/>
<circle cx="136" cy="72" r="8" fill="url(#paint2_linear_1_642)"/>
<circle cx="168" cy="72" r="8" fill="white" fill-opacity="0.08"/>
<circle cx="200" cy="72" r="8" fill="white" fill-opacity="0.08"/>
<circle cx="232" cy="72" r="8" fill="white" fill-opacity="0.08"/>
<circle cx="264" cy="72" r="8" fill="white" fill-opacity="0.08"/>
<circle cx="296" cy="72" r="8" fill="white" fill-opacity="0.08"/>
<circle cx="328" cy="72" r="8" fill="white" fill-opacity="0.08"/>
<circle cx="360" cy="72" r="8" fill="white" fill-opacity="0.08"/>
<circle cx="392" cy="72" r="8" fill="white" fill-opacity="0.08"/>
<circle cx="424" cy="72" r="8" fill="white" fill-opacity="0.08"/>
<circle cx="456" cy="72" r="8" fill="white" fill-opacity="0.08"/>
<circle cx="104" cy="104" r="8" fill="white" fill-opacity="0.08"/>
<circle cx="136" cy="104" r="8" fill="white" fill-opacity="0.08"/>
<circle cx="168" cy="104" r="8" fill="white" fill-opacity="0.08"/>
<circle cx="200" cy="104" r="8" fill="white" fill-opacity="0.08"/>
<circle cx="232" cy="104" r="8" fill="white" fill-opacity="0.08"/>
<circle cx="264" cy="104" r="8" fill="white" fill-opacity="0.08"/>
<circle cx="296" cy="104" r="8" fill="white" fill-opacity="0.08"/>
<circle cx="328" cy="104" r="8" fill="white" fill-opacity="0.08"/>
<circle cx="360" cy="104" r="8" fill="#43A1F7"/>
<circle cx="360" cy="104" r="8" fill="url(#paint3_linear_1_642)"/>
<circle cx="392" cy="104" r="8" fill="white" fill-opacity="0.08"/>
<circle cx="424" cy="104" r="8" fill="white" fill-opacity="0.08"/>
<circle cx="8" cy="136" r="8" fill="white" fill-opacity="0.08"/>
<circle cx="40" cy="136" r="8" fill="white" fill-opacity="0.08"/>
<circle cx="72" cy="136" r="8" fill="white" fill-opacity="0.08"/>
<circle cx="104" cy="136" r="8" fill="white" fill-opacity="0.08"/>
<circle cx="136" cy="136" r="8" fill="white" fill-opacity="0.08"/>
<circle cx="168" cy="136" r="8" fill="white" fill-opacity="0.08"/>
<circle cx="200" cy="136" r="8" fill="white" fill-opacity="0.08"/>
<circle cx="232" cy="136" r="8" fill="white" fill-opacity="0.08"/>
<circle cx="232" cy="136" r="8" fill="url(#paint4_linear_1_642)"/>
<circle cx="264" cy="136" r="8" fill="white" fill-opacity="0.08"/>
<circle cx="296" cy="136" r="8" fill="white" fill-opacity="0.08"/>
<circle cx="328" cy="136" r="8" fill="white" fill-opacity="0.08"/>
<circle cx="360" cy="136" r="8" fill="white" fill-opacity="0.08"/>
<circle cx="392" cy="136" r="8" fill="white" fill-opacity="0.08"/>
<circle cx="424" cy="136" r="8" fill="white" fill-opacity="0.08"/>
<circle cx="456" cy="136" r="8" fill="white" fill-opacity="0.08"/>
<circle cx="8" cy="168" r="8" fill="white" fill-opacity="0.08"/>
<circle cx="40" cy="168" r="8" fill="white" fill-opacity="0.08"/>
<circle cx="72" cy="168" r="8" fill="#43A1F7"/>
<circle cx="72" cy="168" r="8" fill="url(#paint5_linear_1_642)"/>
<circle cx="104" cy="168" r="8" fill="white" fill-opacity="0.08"/>
<circle cx="136" cy="168" r="8" fill="white" fill-opacity="0.08"/>
<circle cx="168" cy="168" r="8" fill="white" fill-opacity="0.08"/>
<circle cx="200" cy="168" r="8" fill="white" fill-opacity="0.08"/>
<circle cx="232" cy="168" r="8" fill="white" fill-opacity="0.08"/>
<circle cx="264" cy="168" r="8" fill="white" fill-opacity="0.08"/>
<circle cx="296" cy="168" r="8" fill="white" fill-opacity="0.08"/>
<circle cx="328" cy="168" r="8" fill="white" fill-opacity="0.08"/>
<circle cx="360" cy="168" r="8" fill="white" fill-opacity="0.08"/>
<circle cx="392" cy="168" r="8" fill="white" fill-opacity="0.08"/>
<circle cx="8" cy="200" r="8" fill="white" fill-opacity="0.08"/>
<circle cx="40" cy="200" r="8" fill="white" fill-opacity="0.08"/>
<circle cx="72" cy="200" r="8" fill="white" fill-opacity="0.08"/>
<circle cx="104" cy="200" r="8" fill="white" fill-opacity="0.08"/>
<circle cx="136" cy="200" r="8" fill="white" fill-opacity="0.08"/>
<circle cx="168" cy="200" r="8" fill="white" fill-opacity="0.08"/>
<circle cx="200" cy="200" r="8" fill="white" fill-opacity="0.08"/>
<circle cx="232" cy="200" r="8" fill="#43A1F7"/>
<circle cx="232" cy="200" r="8" fill="url(#paint6_linear_1_642)"/>
<circle cx="264" cy="200" r="8" fill="white" fill-opacity="0.08"/>
<circle cx="296" cy="200" r="8" fill="white" fill-opacity="0.08"/>
<circle cx="328" cy="200" r="8" fill="white" fill-opacity="0.08"/>
<circle cx="360" cy="200" r="8" fill="white" fill-opacity="0.08"/>
<circle cx="392" cy="200" r="8" fill="white" fill-opacity="0.08"/>
<circle cx="456" cy="200" r="8" fill="white" fill-opacity="0.08"/>
<circle cx="40" cy="232" r="8" fill="white" fill-opacity="0.08"/>
<circle cx="72" cy="232" r="8" fill="white" fill-opacity="0.08"/>
<circle cx="104" cy="232" r="8" fill="white" fill-opacity="0.08"/>
<circle cx="136" cy="232" r="8" fill="white" fill-opacity="0.08"/>
<circle cx="168" cy="232" r="8" fill="white" fill-opacity="0.08"/>
<circle cx="200" cy="232" r="8" fill="white" fill-opacity="0.08"/>
<circle cx="232" cy="232" r="8" fill="white" fill-opacity="0.08"/>
<circle cx="264" cy="232" r="8" fill="white" fill-opacity="0.08"/>
<circle cx="296" cy="232" r="8" fill="white" fill-opacity="0.08"/>
<circle cx="328" cy="232" r="8" fill="white" fill-opacity="0.08"/>
<circle cx="360" cy="232" r="8" fill="white" fill-opacity="0.08"/>
<circle cx="392" cy="232" r="8" fill="#43A1F7"/>
<circle cx="392" cy="232" r="8" fill="url(#paint7_linear_1_642)"/>
<circle cx="424" cy="232" r="8" fill="white" fill-opacity="0.08"/>
<circle cx="456" cy="232" r="8" fill="white" fill-opacity="0.08"/>
<circle cx="72" cy="264" r="8" fill="white" fill-opacity="0.08"/>
<circle cx="104" cy="264" r="8" fill="white" fill-opacity="0.08"/>
<circle cx="136" cy="264" r="8" fill="white" fill-opacity="0.08"/>
<circle cx="168" cy="264" r="8" fill="#43A1F7"/>
<circle cx="168" cy="264" r="8" fill="url(#paint8_linear_1_642)"/>
<circle cx="200" cy="264" r="8" fill="white" fill-opacity="0.08"/>
<circle cx="232" cy="264" r="8" fill="white" fill-opacity="0.08"/>
<circle cx="264" cy="264" r="8" fill="white" fill-opacity="0.08"/>
<circle cx="328" cy="264" r="8" fill="white" fill-opacity="0.08"/>
<circle cx="360" cy="264" r="8" fill="white" fill-opacity="0.08"/>
<circle cx="392" cy="264" r="8" fill="white" fill-opacity="0.08"/>
<circle cx="424" cy="264" r="8" fill="white" fill-opacity="0.08"/>
<circle cx="456" cy="264" r="8" fill="white" fill-opacity="0.08"/>
<circle cx="8" cy="296" r="8" fill="white" fill-opacity="0.08"/>
<circle cx="40" cy="296" r="8" fill="white" fill-opacity="0.08"/>
<circle cx="40" cy="296" r="8" fill="url(#paint9_linear_1_642)"/>
<circle cx="72" cy="296" r="8" fill="white" fill-opacity="0.08"/>
<circle cx="104" cy="296" r="8" fill="white" fill-opacity="0.08"/>
<circle cx="136" cy="296" r="8" fill="white" fill-opacity="0.08"/>
<circle cx="168" cy="296" r="8" fill="white" fill-opacity="0.08"/>
<circle cx="200" cy="296" r="8" fill="white" fill-opacity="0.08"/>
<circle cx="232" cy="296" r="8" fill="white" fill-opacity="0.08"/>
<circle cx="424" cy="296" r="8" fill="white" fill-opacity="0.08"/>
<defs>
<linearGradient id="paint0_linear_1_642" x1="72.0899" y1="16" x2="80.0813" y2="7.62846" gradientUnits="userSpaceOnUse">
<stop stop-color="#FFC657"/>
<stop offset="1" stop-color="#FFD977"/>
</linearGradient>
<linearGradient id="paint1_linear_1_642" x1="264.09" y1="48" x2="272.081" y2="39.6285" gradientUnits="userSpaceOnUse">
<stop stop-color="#FFC657"/>
<stop offset="1" stop-color="#FFD977"/>
</linearGradient>
<linearGradient id="paint2_linear_1_642" x1="136.09" y1="80" x2="144.081" y2="71.6285" gradientUnits="userSpaceOnUse">
<stop stop-color="#FFC657"/>
<stop offset="1" stop-color="#FFD977"/>
</linearGradient>
<linearGradient id="paint3_linear_1_642" x1="360.09" y1="112" x2="368.081" y2="103.628" gradientUnits="userSpaceOnUse">
<stop stop-color="#FFC657"/>
<stop offset="1" stop-color="#FFD977"/>
</linearGradient>
<linearGradient id="paint4_linear_1_642" x1="232.09" y1="144" x2="240.081" y2="135.628" gradientUnits="userSpaceOnUse">
<stop stop-color="#FFC657"/>
<stop offset="1" stop-color="#FFD977"/>
</linearGradient>
<linearGradient id="paint5_linear_1_642" x1="72.0899" y1="176" x2="80.0813" y2="167.628" gradientUnits="userSpaceOnUse">
<stop stop-color="#FFC657"/>
<stop offset="1" stop-color="#FFD977"/>
</linearGradient>
<linearGradient id="paint6_linear_1_642" x1="232.09" y1="208" x2="240.081" y2="199.628" gradientUnits="userSpaceOnUse">
<stop stop-color="#FFC657"/>
<stop offset="1" stop-color="#FFD977"/>
</linearGradient>
<linearGradient id="paint7_linear_1_642" x1="392.09" y1="240" x2="400.081" y2="231.628" gradientUnits="userSpaceOnUse">
<stop stop-color="#FFC657"/>
<stop offset="1" stop-color="#FFD977"/>
</linearGradient>
<linearGradient id="paint8_linear_1_642" x1="168.09" y1="272" x2="176.081" y2="263.628" gradientUnits="userSpaceOnUse">
<stop stop-color="#FFC657"/>
<stop offset="1" stop-color="#FFD977"/>
</linearGradient>
<linearGradient id="paint9_linear_1_642" x1="40.0899" y1="304" x2="48.0813" y2="295.628" gradientUnits="userSpaceOnUse">
<stop stop-color="#FFC657"/>
<stop offset="1" stop-color="#FFD977"/>
</linearGradient>
</defs>
</svg>
