<svg width="14" height="18" viewBox="0 0 14 18" fill="none" xmlns="http://www.w3.org/2000/svg">
<path fill-rule="evenodd" clip-rule="evenodd" d="M7 1.5L7.32305 0.82314C7.09067 0.712234 6.81765 0.728285 6.59987 0.865657C6.38209 1.00303 6.25 1.24251 6.25 1.5C6.25 2.10696 6.27989 2.7758 6.30944 3.43683L6.30945 3.43699C6.31742 3.61526 6.32536 3.79296 6.33268 3.96872C6.36781 4.81186 6.38941 5.621 6.34521 6.32822C6.29994 7.05254 6.18952 7.57761 6.01955 7.90138C5.94018 8.05255 5.86196 8.13205 5.7966 8.1753C5.73673 8.21491 5.64944 8.25 5.5 8.25C5.25634 8.25 5.11521 8.19174 5.01961 8.12118C4.91691 8.04538 4.80173 7.90676 4.69636 7.64333C4.47355 7.08631 4.375 6.18441 4.375 4.875C4.375 4.58313 4.20567 4.31776 3.94096 4.1948C3.67625 4.07184 3.36424 4.11362 3.14121 4.3019L3.625 4.875C3.14121 4.3019 3.14099 4.30208 3.14076 4.30228L3.14024 4.30272L3.13903 4.30375L3.13589 4.30642L3.12678 4.31426L3.0977 4.33976C3.07365 4.3611 3.04045 4.39112 2.99942 4.42956C2.91741 4.5064 2.80378 4.6172 2.66915 4.75999C2.40044 5.04499 2.04484 5.46081 1.6893 5.99182C0.981096 7.04952 0.25 8.5999 0.25 10.5C0.25 14.3261 3.21359 17.25 7 17.25C10.7864 17.25 13.75 14.3261 13.75 10.5C13.75 7.16576 12.1151 4.73529 10.5273 3.16551C9.73258 2.37984 8.9398 1.79896 8.34523 1.41384C8.04732 1.22087 7.79738 1.0759 7.61942 0.977961C7.53038 0.928963 7.4592 0.891648 7.40885 0.865902C7.38367 0.853026 7.36369 0.843035 7.34927 0.835915L7.33185 0.827383L7.32635 0.824726L7.32443 0.8238L7.32367 0.823437C7.32335 0.823283 7.32305 0.82314 7 1.5Z" fill="white"/>
</svg>
