<svg width="16" height="16" viewBox="0 0 16 16" fill="none" xmlns="http://www.w3.org/2000/svg">
<path fill-rule="evenodd" clip-rule="evenodd" d="M11.2502 3.00016C11.2502 2.4939 10.8398 2.0835 10.3335 2.0835H10.28C9.85158 2.0835 9.47388 2.36452 9.35077 2.77488L9.00819 3.91683H10.3335C10.8398 3.91683 11.2502 3.50642 11.2502 3.00016ZM12.5703 3.91683C12.6862 3.63415 12.7502 3.32462 12.7502 3.00016C12.7502 1.66547 11.6682 0.583496 10.3335 0.583496H10.28C9.27531 0.583496 8.38017 1.19047 8.00016 2.10268C7.62015 1.19047 6.72501 0.583496 5.72032 0.583496H5.66683C4.33214 0.583496 3.25016 1.66547 3.25016 3.00016C3.25016 3.32462 3.3141 3.63415 3.43007 3.91683H2.3335C1.367 3.91683 0.583496 4.70033 0.583496 5.66683C0.583496 6.63333 1.367 7.41683 2.3335 7.41683H13.6668C14.6333 7.41683 15.4168 6.63333 15.4168 5.66683C15.4168 4.70033 14.6333 3.91683 13.6668 3.91683H12.5703ZM5.66683 3.91683H6.99214L6.64955 2.77488C6.52645 2.36452 6.14874 2.0835 5.72032 2.0835H5.66683C5.16057 2.0835 4.75016 2.4939 4.75016 3.00016C4.75016 3.50642 5.16057 3.91683 5.66683 3.91683ZM4.28735 7.91671L4.38112 7.91683H11.6192L11.713 7.91671C12.0951 7.91597 12.4604 7.91527 12.7775 8.02626C13.3377 8.22226 13.7781 8.66265 13.9741 9.22279C14.0851 9.53997 14.0844 9.90523 14.0836 10.2873L14.0835 10.3811L14.0835 10.5301V10.5301C14.084 11.5824 14.0843 12.3017 13.8731 12.9054C13.4961 13.9826 12.6492 14.8295 11.572 15.2064C10.9684 15.4176 10.2491 15.4173 9.19674 15.4169L9.04778 15.4168H6.95255L6.80358 15.4169C5.75122 15.4173 5.03193 15.4176 4.42828 15.2064C3.35111 14.8295 2.50419 13.9826 2.12727 12.9054C1.91604 12.3017 1.91634 11.5824 1.91679 10.5301L1.91683 10.3811L1.91671 10.2873C1.91597 9.90523 1.91527 9.53997 2.02626 9.22279C2.22226 8.66265 2.66265 8.22226 3.22279 8.02626C3.53997 7.91527 3.90523 7.91597 4.28735 7.91671Z" fill="#43A1F7"/>
</svg>
