<svg width="304" height="129" viewBox="0 0 304 129" fill="none" xmlns="http://www.w3.org/2000/svg">
<path d="M2 127.5L12.518 110.637C14.0085 108.248 17.4783 108.221 19.0051 110.588V110.588C20.653 113.141 24.4734 112.861 25.7304 110.094L36.0189 87.4445C37.4698 84.2505 42.0364 84.3383 43.3635 87.5857L45.4106 92.595C46.7265 95.8149 51.2429 95.9333 52.7307 92.7891V92.7891C54.1865 89.7126 58.5766 89.7408 59.9879 92.838L65.0737 103.999C66.4971 107.123 70.9357 107.121 72.3555 103.995L77.6519 92.3357C78.5883 90.2744 81.5224 90.2926 82.4332 92.3653V92.3653C83.5008 94.7951 87.0897 94.2777 87.4275 91.6453L92.9982 48.2338C93.3708 45.3301 96.634 43.7972 99.1068 45.3642L107.652 50.7796C107.883 50.9261 108.099 51.0961 108.296 51.2867L124.075 66.5877C124.357 66.8611 124.597 67.1745 124.787 67.5179L131.02 78.746C132.539 81.481 136.467 81.4933 138.003 78.7678L142.145 71.4141C143.807 68.4638 148.154 68.7843 149.366 71.9465L150.663 75.3321C151.971 78.7471 156.797 78.761 158.125 75.3536L162.427 64.3147C163.895 60.5454 169.392 61.0893 170.093 65.0735L171.797 74.7515C172.552 79.0379 178.642 79.206 179.632 74.9677L186.037 47.5449C186.882 43.9268 191.774 43.3153 193.483 46.6139L200.964 61.0455C202.358 63.7347 206.119 63.9589 207.823 61.4544L210.102 58.1028C212.015 55.2917 216.34 55.9964 217.26 59.2691L221.196 73.2581C222.312 77.2234 227.969 77.1171 228.935 73.1128L234.375 50.5642C235.317 46.6571 240.787 46.4246 242.058 50.2377L246.688 64.1316C247.659 67.0465 251.721 67.2082 252.921 64.3798L253.267 63.565C254.219 61.3208 257.344 61.173 258.503 63.3173V63.3173C259.65 65.4377 262.73 65.3232 263.716 63.1235L279.257 28.4551C280.494 25.6967 284.446 25.8041 285.531 28.6258V28.6258C286.654 31.5466 290.794 31.5262 291.888 28.5945L302 1.5" stroke="#43A1F7" stroke-width="3"/>
<path d="M2 127.5L12.518 110.637C14.0085 108.248 17.4783 108.221 19.0051 110.588V110.588C20.653 113.141 24.4734 112.861 25.7304 110.094L36.0189 87.4445C37.4698 84.2505 42.0364 84.3383 43.3635 87.5857L45.4106 92.595C46.7265 95.8149 51.2429 95.9333 52.7307 92.7891V92.7891C54.1865 89.7126 58.5766 89.7408 59.9879 92.838L65.0737 103.999C66.4971 107.123 70.9357 107.121 72.3555 103.995L77.6519 92.3357C78.5883 90.2744 81.5224 90.2926 82.4332 92.3653V92.3653C83.5008 94.7951 87.0897 94.2777 87.4275 91.6453L92.9982 48.2338C93.3708 45.3301 96.634 43.7972 99.1068 45.3642L107.652 50.7796C107.883 50.9261 108.099 51.0961 108.296 51.2867L124.075 66.5877C124.357 66.8611 124.597 67.1745 124.787 67.5179L131.02 78.746C132.539 81.481 136.467 81.4933 138.003 78.7678L142.145 71.4141C143.807 68.4638 148.154 68.7843 149.366 71.9465L150.663 75.3321C151.971 78.7471 156.797 78.761 158.125 75.3536L162.427 64.3147C163.895 60.5454 169.392 61.0893 170.093 65.0735L171.797 74.7515C172.552 79.0379 178.642 79.206 179.632 74.9677L186.037 47.5449C186.882 43.9268 191.774 43.3153 193.483 46.6139L200.964 61.0455C202.358 63.7347 206.119 63.9589 207.823 61.4544L210.102 58.1028C212.015 55.2917 216.34 55.9964 217.26 59.2691L221.196 73.2581C222.312 77.2234 227.969 77.1171 228.935 73.1128L234.375 50.5642C235.317 46.6571 240.787 46.4246 242.058 50.2377L246.688 64.1316C247.659 67.0465 251.721 67.2082 252.921 64.3798L253.267 63.565C254.219 61.3208 257.344 61.173 258.503 63.3173V63.3173C259.65 65.4377 262.73 65.3232 263.716 63.1235L279.257 28.4551C280.494 25.6967 284.446 25.8041 285.531 28.6258V28.6258C286.654 31.5466 290.794 31.5262 291.888 28.5945L302 1.5" stroke="url(#paint0_linear_1305_688)" stroke-width="3"/>
<defs>
<linearGradient id="paint0_linear_1305_688" x1="302" y1="1.50006" x2="-7.56071" y2="32.7293" gradientUnits="userSpaceOnUse">
<stop stop-color="#577CFF"/>
<stop offset="1" stop-color="#4CBFFF"/>
</linearGradient>
</defs>
</svg>
