<svg width="8" height="6" viewBox="0 0 8 6" fill="none" xmlns="http://www.w3.org/2000/svg">
<path d="M5.70866 4.62478L5.70865 4.62479C5.10697 5.22647 4.80613 5.52732 4.46363 5.6386C4.16237 5.73649 3.83785 5.73649 3.53658 5.6386C3.19409 5.52732 2.89325 5.22647 2.29156 4.62479C0.987945 3.32117 0.336136 2.66936 0.292718 2.11769C0.255045 1.63901 0.448807 1.17123 0.813922 0.859391C1.23471 0.5 2.15651 0.5 4.00011 0.5C5.8437 0.5 6.7655 0.5 7.18629 0.859391C7.55141 1.17123 7.74517 1.63901 7.7075 2.11769C7.66408 2.66936 7.01227 3.32117 5.70866 4.62478Z" fill="white" fill-opacity="0.24"/>
</svg>
