<svg width="31" height="24" viewBox="0 0 31 24" fill="none" xmlns="http://www.w3.org/2000/svg">
<path d="M20.2287 0.390625C19.9307 0.924156 19.6653 1.47515 19.4337 2.04062C17.1578 1.6807 14.8395 1.6807 12.5637 2.04062C12.332 1.47515 12.0666 0.924156 11.7687 0.390625C9.62484 0.756926 7.54076 1.41293 5.57366 2.34062C2.05607 7.41706 0.460811 13.5801 1.07365 19.7256C3.36601 21.4489 5.93884 22.7632 8.67865 23.6106C9.30253 22.7865 9.85931 21.9137 10.3437 21.0006C9.44977 20.671 8.5906 20.254 7.77866 19.7556C8.00135 19.6075 8.212 19.4419 8.40866 19.2606C10.7763 20.4011 13.3706 20.9933 15.9987 20.9933C18.6267 20.9933 21.221 20.4011 23.5887 19.2606C23.7987 19.4406 24.0087 19.6056 24.2187 19.7556C23.4023 20.2501 22.544 20.6717 21.6537 21.0156C22.1179 21.9494 22.6598 22.8426 23.2737 23.6856C26.01 22.8412 28.5784 21.5265 30.8637 19.8006C31.4912 13.6539 29.8947 7.4859 26.3637 2.41563C24.4186 1.46873 22.3552 0.787631 20.2287 0.390625ZM11.0187 16.2156C10.268 16.1617 9.56747 15.8192 9.06404 15.2598C8.5606 14.7004 8.29345 13.9678 8.31866 13.2156C8.28965 12.4625 8.55548 11.7278 9.05967 11.1675C9.56386 10.6073 10.2666 10.2658 11.0187 10.2156C11.7707 10.2658 12.4734 10.6073 12.9776 11.1675C13.4818 11.7278 13.7477 12.4625 13.7187 13.2156C13.7477 13.9688 13.4818 14.7035 12.9776 15.2637C12.4734 15.8239 11.7707 16.1654 11.0187 16.2156ZM20.9787 16.2156C20.228 16.1617 19.5275 15.8192 19.024 15.2598C18.5206 14.7004 18.2534 13.9678 18.2787 13.2156C18.2496 12.4625 18.5155 11.7278 19.0197 11.1675C19.5239 10.6073 20.2266 10.2658 20.9787 10.2156C21.7321 10.2621 22.4371 10.6025 22.9421 11.1635C23.447 11.7246 23.7115 12.4615 23.6787 13.2156C23.7115 13.9697 23.447 14.7066 22.9421 15.2677C22.4371 15.8288 21.7321 16.1692 20.9787 16.2156Z" fill="#43A1F7"/>
</svg>
