<svg width="10" height="7" viewBox="0 0 10 7" fill="none" xmlns="http://www.w3.org/2000/svg">
<path d="M3.30297 5.30295L2.09708 4.09706C0.811953 2.81193 0.169388 2.16936 0.12597 1.61769C0.0882973 1.13901 0.282059 0.671228 0.647174 0.359391C1.06797 0 1.97669 0 3.79414 0H6.20591C8.02336 0 8.93208 0 9.35288 0.359391C9.71799 0.671228 9.91175 1.13901 9.87408 1.61769C9.83066 2.16936 9.1881 2.81193 7.90297 4.09706L6.69708 5.30294L6.69708 5.30295C6.10305 5.89697 5.80604 6.19398 5.46355 6.30526C5.16229 6.40315 4.83777 6.40315 4.5365 6.30526C4.19401 6.19398 3.897 5.89697 3.30297 5.30295Z" fill="white"/>
</svg>
