<svg width="16" height="16" viewBox="0 0 16 16" fill="none" xmlns="http://www.w3.org/2000/svg">
<g opacity="0.36">
<path fill-rule="evenodd" clip-rule="evenodd" d="M7.99992 0.583496C3.90381 0.583496 0.583252 3.90405 0.583252 8.00016C0.583252 12.0963 3.90381 15.4168 7.99992 15.4168C12.096 15.4168 15.4166 12.0963 15.4166 8.00016C15.4166 3.90405 12.096 0.583496 7.99992 0.583496ZM5.46959 5.46983C5.76248 5.17694 6.23736 5.17694 6.53025 5.46983L7.99992 6.9395L9.46959 5.46983C9.76248 5.17694 10.2374 5.17694 10.5302 5.46983C10.8231 5.76273 10.8231 6.2376 10.5302 6.53049L9.06058 8.00016L10.5302 9.46983C10.8231 9.76273 10.8231 10.2376 10.5302 10.5305C10.2374 10.8234 9.76248 10.8234 9.46959 10.5305L7.99992 9.06082L6.53025 10.5305C6.23736 10.8234 5.76248 10.8234 5.46959 10.5305C5.1767 10.2376 5.1767 9.76273 5.46959 9.46983L6.93926 8.00016L5.46959 6.53049C5.1767 6.2376 5.1767 5.76273 5.46959 5.46983Z" fill="white"/>
</g>
</svg>
