<svg width="60" height="60" viewBox="0 0 60 60" fill="none" xmlns="http://www.w3.org/2000/svg">
<path fill-rule="evenodd" clip-rule="evenodd" d="M50.2564 9.90405C44.5644 4.03198 35.3093 4.03198 29.6173 9.90405L27.8406 11.737C27.0718 12.5301 27.0916 13.7963 27.8847 14.565C28.6778 15.3338 29.944 15.3141 30.7128 14.521L32.4895 12.6881C36.6099 8.4373 43.2638 8.4373 47.3843 12.6881C51.5386 16.9738 51.5386 23.9474 47.3843 28.2331L43.1475 32.6039C39.4045 36.4654 33.3624 36.4654 29.6194 32.6039L28.9361 31.8989C28.1673 31.1058 26.9011 31.0861 26.108 31.8549C25.3149 32.6237 25.2951 33.8899 26.0639 34.683L26.7473 35.3879C32.0619 40.8707 40.7051 40.8707 46.0197 35.388L50.2564 31.0172C55.9145 25.18 55.9145 15.7412 50.2564 9.90405ZM16.8525 27.3961C20.5955 23.5346 26.6376 23.5346 30.3806 27.3961L31.0639 28.1011C31.8327 28.8942 33.0989 28.9139 33.892 28.1451C34.6851 27.3763 34.7049 26.1101 33.9361 25.317L33.2527 24.612C27.9381 19.1293 19.2949 19.1293 13.9803 24.612L9.74359 28.9828C4.08547 34.82 4.08547 44.2588 9.74359 50.0959C15.4356 55.968 24.6907 55.968 30.3827 50.0959L32.1594 48.263C32.9282 47.4699 32.9084 46.2037 32.1153 45.435C31.3222 44.6662 30.056 44.6859 29.2872 45.479L27.5105 47.3119C23.3901 51.5627 16.7362 51.5627 12.6157 47.3119C8.46143 43.0262 8.46143 36.0526 12.6157 31.7669L16.8525 27.3961Z" fill="white"/>
</svg>
