<svg width="62" height="59" viewBox="0 0 62 59" fill="none" xmlns="http://www.w3.org/2000/svg">
<path d="M58.0332 1L34.5938 18.8125L38.9525 8.315L58.0332 1Z" fill="#E1E3E5" stroke="#E1E3E5" stroke-width="0.342246" stroke-linecap="round" stroke-linejoin="round"/>
<path d="M3.96875 1L27.1995 18.9787L23.0495 8.31498L3.96875 1Z" fill="#E1E3E5" stroke="#E1E3E5" stroke-width="0.342246" stroke-linecap="round" stroke-linejoin="round"/>
<path d="M49.5959 42.3008L43.3594 52.0858L56.7135 55.8621L60.539 42.5147L49.5959 42.3008Z" fill="#E1E3E5" stroke="#E1E3E5" stroke-width="0.342246" stroke-linecap="round" stroke-linejoin="round"/>
<path d="M1.49219 42.5147L5.2944 55.8621L18.6254 52.0858L12.412 42.3008L1.49219 42.5147Z" fill="#E1E3E5" stroke="#E1E3E5" stroke-width="0.342246" stroke-linecap="round" stroke-linejoin="round"/>
<path d="M17.9047 25.7705L14.1953 31.518L27.4104 32.1355L26.9699 17.5293L17.9047 25.7705Z" fill="#E1E3E5" stroke="#FFF0E1" stroke-width="0.342246" stroke-linecap="round" stroke-linejoin="round"/>
<path d="M44.0992 25.7707L34.8952 17.3633L34.5938 32.1358L47.8087 31.5183L44.0992 25.7707Z" fill="#E1E3E5" stroke="#FFF0E1" stroke-width="0.342246" stroke-linecap="round" stroke-linejoin="round"/>
<path d="M18.625 52.0855L26.6235 48.1194L19.7379 42.6094L18.625 52.0855Z" fill="#E1E3E5" stroke="#FFF0E1" stroke-width="0.342246" stroke-linecap="round" stroke-linejoin="round"/>
<path d="M35.3828 48.1194L43.3581 52.0855L42.2684 42.6094L35.3828 48.1194Z" fill="#E1E3E5" stroke="#FFF0E1" stroke-width="0.342246" stroke-linecap="round" stroke-linejoin="round"/>
<path d="M43.3581 52.0853L35.3828 48.1191L36.0319 53.4391L35.9623 55.6953L43.3581 52.0853Z" fill="#CBD0D3" stroke="#CBD0D3" stroke-width="0.342246" stroke-linecap="round" stroke-linejoin="round"/>
<path d="M18.625 52.0853L26.044 55.6953L25.9976 53.4391L26.6235 48.1191L18.625 52.0853Z" fill="#CBD0D3" stroke="#CBD0D3" stroke-width="0.342246" stroke-linecap="round" stroke-linejoin="round"/>
<path d="M26.1776 39.0943L19.5469 37.0994L24.2301 34.8906L26.1776 39.0943Z" fill="#161616" stroke="#161616" stroke-width="0.342246" stroke-linecap="round" stroke-linejoin="round"/>
<path d="M35.8203 39.0943L37.7679 34.8906L42.4743 37.0994L35.8203 39.0943Z" fill="#161616" stroke="#161616" stroke-width="0.342246" stroke-linecap="round" stroke-linejoin="round"/>
<path d="M18.6196 52.0858L19.7789 42.3008L12.4062 42.5147L18.6196 52.0858Z" fill="#D5D8DA" stroke="#D5D8DA" stroke-width="0.342246" stroke-linecap="round" stroke-linejoin="round"/>
<path d="M42.2266 42.3008L43.3627 52.0858L49.5992 42.5147L42.2266 42.3008Z" fill="#D5D8DA" stroke="#D5D8DA" stroke-width="0.342246" stroke-linecap="round" stroke-linejoin="round"/>
<path d="M47.8087 31.5176L34.5938 32.1351L35.8225 39.094L37.77 34.8901L42.4764 37.0989L47.8087 31.5176Z" fill="#B5BDC3" stroke="#B5BDC3" stroke-width="0.342246" stroke-linecap="round" stroke-linejoin="round"/>
<path d="M19.5509 37.0989L24.2341 34.8901L26.1817 39.094L27.4104 32.1351L14.1953 31.5176L19.5509 37.0989Z" fill="#B5BDC3" stroke="#B5BDC3" stroke-width="0.342246" stroke-linecap="round" stroke-linejoin="round"/>
<path d="M14.1953 31.5176L19.7364 42.6089L19.5508 37.0989L14.1953 31.5176Z" fill="#E1E3E5" stroke="#E1E3E5" stroke-width="0.342246" stroke-linecap="round" stroke-linejoin="round"/>
<path d="M42.4821 37.0989L42.2734 42.6089L47.8145 31.5176L42.4821 37.0989Z" fill="#E1E3E5" stroke="#E1E3E5" stroke-width="0.342246" stroke-linecap="round" stroke-linejoin="round"/>
<path d="M27.4086 32.1348L26.1797 39.0937L27.733 47.311L28.0808 36.4811L27.4086 32.1348Z" fill="#E1E3E5" stroke="#E1E3E5" stroke-width="0.342246" stroke-linecap="round" stroke-linejoin="round"/>
<path d="M34.5946 32.1348L33.9453 36.4574L34.2699 47.311L35.8233 39.0937L34.5946 32.1348Z" fill="#E1E3E5" stroke="#E1E3E5" stroke-width="0.342246" stroke-linecap="round" stroke-linejoin="round"/>
<path d="M35.8268 39.0947L34.2734 47.312L35.3863 48.1196L42.2721 42.6096L42.4807 37.0996L35.8268 39.0947Z" fill="white" stroke="white" stroke-width="0.342246" stroke-linecap="round" stroke-linejoin="round"/>
<path d="M19.5469 37.0996L19.7325 42.6096L26.6181 48.1196L27.731 47.312L26.1776 39.0947L19.5469 37.0996Z" fill="white" stroke="white" stroke-width="0.342246" stroke-linecap="round" stroke-linejoin="round"/>
<path d="M35.9669 55.696L36.0363 53.4397L35.4337 52.9171H26.5773L25.9976 53.4397L26.044 55.696L18.625 52.0859L21.2216 54.2709L26.4845 57.9997H35.5031L40.7891 54.2709L43.3626 52.0859L35.9669 55.696Z" fill="#B5BEC3" stroke="#B5BEC3" stroke-width="0.342246" stroke-linecap="round" stroke-linejoin="round"/>
<path d="M35.3818 48.1199L34.2689 47.3125H27.7309L26.6182 48.1199L25.9922 53.44L26.5718 52.9174H35.4282L36.0311 53.44L35.3818 48.1199Z" fill="#161616" stroke="#161616" stroke-width="0.342246" stroke-linecap="round" stroke-linejoin="round"/>
<path d="M59.0307 19.9762L61.0014 10.1437L58.0338 1L35.3828 18.2188L44.1 25.7712L56.4109 29.4525L59.1235 26.1988L57.9412 25.3199L59.8189 23.5626L58.3816 22.4225L60.2596 20.95L59.0307 19.9762Z" fill="#B5BEC3" stroke="#B5BEC3" stroke-width="0.342246" stroke-linecap="round" stroke-linejoin="round"/>
<path d="M1 10.1437L2.99385 19.9762L1.71872 20.95L3.61983 22.4225L2.1824 23.5626L4.06033 25.3199L2.87792 26.1988L5.5905 29.4525L17.9015 25.7712L26.6186 18.2188L3.9676 1L1 10.1437Z" fill="#B5BEC3" stroke="#B5BEC3" stroke-width="0.342246" stroke-linecap="round" stroke-linejoin="round"/>
<path d="M56.4159 29.4507L44.105 25.7695L47.8145 31.5171L42.2734 42.6082L49.5997 42.5132H60.5426L56.4159 29.4507Z" fill="white" stroke="white" stroke-width="0.342246" stroke-linecap="round" stroke-linejoin="round"/>
<path d="M17.9066 25.7695L5.5958 29.4507L1.49219 42.5132H12.412L19.7382 42.6082L14.1972 31.5171L17.9066 25.7695Z" fill="white" stroke="white" stroke-width="0.342246" stroke-linecap="round" stroke-linejoin="round"/>
<path d="M34.5927 32.1357L35.3809 18.2181L38.9513 8.31445H23.0469L26.6172 18.2181L27.4055 32.1357L27.7069 36.5057L27.7301 47.3119H34.2681L34.2913 36.5057L34.5927 32.1357Z" fill="white" stroke="white" stroke-width="0.342246" stroke-linecap="round" stroke-linejoin="round"/>
</svg>
