<svg width="48" height="48" viewBox="0 0 48 48" fill="none" xmlns="http://www.w3.org/2000/svg">
<path fill-rule="evenodd" clip-rule="evenodd" d="M7.99992 2.00005L7.81377 1.99984C7.07633 1.99861 6.35151 1.99741 5.70583 2.17042C3.98037 2.63275 2.63263 3.98049 2.17029 5.70595C1.99728 6.35163 1.99849 7.07645 1.99972 7.8139L1.99992 8.00005L1.99992 8.00048L1.99972 8.1862C1.99951 8.30984 1.99931 8.43314 1.99992 8.55576V11.999L1.99992 12V31.2L1.99992 31.2856C1.9999 33.4532 1.99989 35.2015 2.11556 36.6172C2.23466 38.0749 2.48628 39.3553 3.08986 40.5399C4.04859 42.4215 5.5784 43.9513 7.46002 44.91C8.6446 45.5136 9.92498 45.7653 11.3827 45.8844C12.7984 46 14.5466 46 16.7141 46H16.7143H16.7999H31.1999H31.2856H31.2858C33.4533 46 35.2015 46 36.6172 45.8844C38.0749 45.7653 39.3552 45.5136 40.5398 44.91C42.4214 43.9513 43.9513 42.4215 44.91 40.5399C45.5136 39.3553 45.7652 38.0749 45.8843 36.6172C45.9006 36.4181 45.9145 36.2125 45.9265 36H41.9999H41.9359C41.0586 36 40.3017 36 39.6752 35.9573C39.0155 35.9123 38.3557 35.8133 37.7038 35.5433C36.2337 34.9343 35.0656 33.7663 34.4566 32.2961C34.1866 31.6442 34.0876 30.9844 34.0426 30.3247C33.9999 29.6982 33.9999 28.9413 33.9999 28.064V28V27.936C33.9999 27.0587 33.9999 26.3017 34.0426 25.6752C34.0876 25.0156 34.1866 24.3557 34.4566 23.7039C35.0656 22.2337 36.2337 21.0657 37.7038 20.4567C38.3557 20.1867 39.0155 20.0877 39.6752 20.0427C40.3017 19.9999 41.0586 20 41.9359 20H41.936L41.9999 20H45.9265C45.9145 19.7875 45.9006 19.5818 45.8843 19.3827C45.7652 17.925 45.5136 16.6447 44.91 15.4601C43.9513 13.5785 42.4214 12.0487 40.5398 11.0899C39.3552 10.4863 38.0749 10.2347 36.6172 10.1156C36.1272 10.0756 35.5974 10.0494 35.0241 10.0323L31.5199 5.36005L31.3993 5.19903C30.816 4.4195 30.3022 3.73282 29.6268 3.2203C29.0341 2.77059 28.363 2.43502 27.6476 2.23072C26.8323 1.99788 25.9747 1.99883 25.0011 1.9999L24.7999 2.00005H7.99992ZM29.9999 9.99998L28.3199 7.76005C27.5464 6.72864 27.3795 6.53627 27.2089 6.4068C27.0113 6.25689 26.7876 6.14504 26.5492 6.07694C26.3432 6.01812 26.0892 6.00005 24.7999 6.00005H7.99992C7.51681 6.00005 7.22119 6.00053 6.99713 6.01075C6.79649 6.0199 6.74017 6.03428 6.7404 6.03429C6.74042 6.0343 6.74066 6.03424 6.7411 6.03412C6.39601 6.12659 6.12647 6.39613 6.034 6.74123C6.036 6.73375 6.02035 6.78395 6.01062 6.99726C6.00041 7.22131 5.99992 7.51693 5.99992 8.00005C5.99992 8.48316 6.00041 8.77878 6.01062 9.00283C6.02035 9.21614 6.036 9.26634 6.034 9.25886C6.12647 9.60396 6.39601 9.8735 6.7411 9.96598C6.74812 9.96766 6.80957 9.98079 6.99713 9.98934C7.18819 9.99806 7.43128 9.99969 7.79828 9.99998H23.9999H29.9999ZM45.9999 31.3024V31.2859V31.2857V31.2V24.8V24.7143V24.7141V24.6975C45.9999 24.46 45.9999 24.2275 45.9998 24H41.9999C41.0407 24 40.4214 24.0011 39.9474 24.0334C39.4914 24.0645 39.3178 24.1178 39.2346 24.1522C38.7445 24.3552 38.3552 24.7446 38.1522 25.2346C38.1177 25.3178 38.0645 25.4915 38.0333 25.9475C38.001 26.4215 37.9999 27.0407 37.9999 28C37.9999 28.9592 38.001 29.5785 38.0333 30.0525C38.0645 30.5085 38.1177 30.6821 38.1522 30.7654C38.3552 31.2554 38.7445 31.6448 39.2346 31.8477C39.3178 31.8822 39.4914 31.9355 39.9474 31.9666C40.4214 31.9989 41.0407 32 41.9999 32H45.9998C45.9999 31.7724 45.9999 31.54 45.9999 31.3024Z" fill="#FF68C3"/>
</svg>
